<?xml version="1.0"?>
<svg xmlns="http://www.w3.org/2000/svg" id="Layer_1" data-name="Layer 1" viewBox="0 0 512 512" width="512" height="512"><title>Brain</title><path d="M234.531,192.447a6,6,0,0,0-7.437-4.085,14.536,14.536,0,0,1-6.635.479c-6.53-1.166-11.809-7.7-13.135-16.246a6,6,0,1,0-11.858,1.84,35.092,35.092,0,0,0,6.233,15.344,13.482,13.482,0,0,0-5.158,7.06,12.4,12.4,0,0,0,.246,7.578,6,6,0,0,0,11.344-3.915,2.783,2.783,0,0,1-.076-.283c.147-.369,1.244-1.365,3.465-1.907a24.2,24.2,0,0,0,6.83,2.342,24.513,24.513,0,0,0,4.317.379,27.83,27.83,0,0,0,7.779-1.149A6,6,0,0,0,234.531,192.447Z"/><path d="M208.214,307.28a6,6,0,0,0-8.406-1.162c-2.148,1.626-7.923,5.363-15.142,4.965a20.817,20.817,0,0,1-8.023-2.148,5.986,5.986,0,0,0-1.608-.873,23.891,23.891,0,0,1-11.046-15.509,6,6,0,1,0-11.744,2.467,36.072,36.072,0,0,0,7.892,16.068,17.071,17.071,0,0,0-7.064,8.856c-2.054,6.157-.035,12.9,5.27,17.611a6,6,0,1,0,7.963-8.977c-1.648-1.462-2.357-3.315-1.85-4.835.64-1.92,3.263-3.785,6.771-4.033A33.152,33.152,0,0,0,184,323.064q.9.051,1.785.05a35.859,35.859,0,0,0,21.266-7.429A6,6,0,0,0,208.214,307.28Z"/><path d="M209.916,333.847a6,6,0,1,0-3.909,11.346c6.849,2.359,11.116,5.562,10.87,8.161a8.607,8.607,0,0,1-1.44,4.363,6,6,0,1,0,9,7.936c3.246-3.68,4.141-8.577,4.386-11.168C229.307,349.376,227.494,339.9,209.916,333.847Z"/><path d="M293.65,200.654a24.271,24.271,0,0,0,6.831-2.342c2.239.546,3.334,1.548,3.458,1.874a.966.966,0,0,1-.07.316,6,6,0,1,0,11.344,3.915,12.4,12.4,0,0,0,.246-7.578,13.482,13.482,0,0,0-5.158-7.06,35.092,35.092,0,0,0,6.233-15.344,6,6,0,0,0-11.858-1.84c-1.326,8.551-6.6,15.08-13.135,16.246a14.536,14.536,0,0,1-6.635-.479,6,6,0,0,0-3.352,11.522,27.793,27.793,0,0,0,7.779,1.149A24.513,24.513,0,0,0,293.65,200.654Z"/><path d="M355.117,287.914a6,6,0,0,0-7.106,4.639,23.891,23.891,0,0,1-11.046,15.509,5.986,5.986,0,0,0-1.608.873,20.822,20.822,0,0,1-8.023,2.148c-7.217.4-12.994-3.339-15.142-4.965a6,6,0,1,0-7.244,9.567,35.85,35.85,0,0,0,21.266,7.429q.879,0,1.785-.05a33.143,33.143,0,0,0,12.773-3.354c3.508.249,6.132,2.113,6.772,4.033.507,1.52-.2,3.373-1.85,4.835a6,6,0,0,0,7.963,8.977c5.305-4.706,7.324-11.454,5.27-17.61a17.08,17.08,0,0,0-7.062-8.86,36.068,36.068,0,0,0,7.89-16.065A6,6,0,0,0,355.117,287.914Z"/><path d="M302.084,333.847c-12.171,4.193-19.769,13.127-18.907,22.231a16.978,16.978,0,0,0,4.386,9.575,6,6,0,1,0,9-7.936,5.22,5.22,0,0,1-1.44-2.77c-.271-2.861,3.721-7.292,10.87-9.754a6,6,0,1,0-3.909-11.346Z"/><path d="M469,272.984A24.1,24.1,0,1,0,462.755,250H401.323a52.309,52.309,0,0,0-20.154-21H431.12a5.611,5.611,0,0,0,5.88-5.653V193h21.706a23.4,23.4,0,0,0,6.241,10.8,24.073,24.073,0,0,0,33.969-.135,23.971,23.971,0,1,0-33.969-33.828A24.518,24.518,0,0,0,458.706,181H431.12c-3.314,0-6.12,2.327-6.12,5.64V217H380.776a32.754,32.754,0,0,0-4.7-12.308c-4.465-6.777-11.008-10.623-16.2-12.827a36.542,36.542,0,0,0,2.336-5.808c4.118-13.6,1.159-33.089-15.068-43.765a46.219,46.219,0,0,0-19.435-7.261c-2.812-16.231-16.589-29.9-34.7-33.374a50.027,50.027,0,0,0-38.833,9.284,45.856,45.856,0,0,0-37.2-9.28c-17.462,3.353-30.3,16.716-32.788,33.394a46.238,46.238,0,0,0-19.343,7.259c-16.227,10.675-19.186,30.181-15.068,43.786a37.01,37.01,0,0,0,2.336,5.852c-5.193,2.2-11.736,5.963-16.2,12.74a32.754,32.754,0,0,0-4.7,12.308H87V186.64c0-3.313-2.806-5.64-6.12-5.64H53.294a24.528,24.528,0,0,0-6.241-11.164,23.964,23.964,0,1,0-16.984,40.835,23.7,23.7,0,0,0,16.984-6.861A23.427,23.427,0,0,0,53.294,193H75v30.347A5.611,5.611,0,0,0,80.88,229h49.944a52.3,52.3,0,0,0-20.15,21H49.245a24.1,24.1,0,1,0,0,12h57.122a42.589,42.589,0,0,0,1.015,21H80.88A5.611,5.611,0,0,0,75,288.653V319H53.294a23.4,23.4,0,0,0-6.241-10.8,24.073,24.073,0,0,0-33.969.135,23.971,23.971,0,1,0,33.969,33.828A24.518,24.518,0,0,0,53.294,331H80.88c3.314,0,6.12-2.327,6.12-5.64V295h16.818a35.494,35.494,0,0,0-11.177,16.951c-3.7,13.468,3.923,27.182,19.608,36.3a33.723,33.723,0,0,0,5.468,35.051c6.955,8.115,18.492,12.7,31.652,12.7h.239a57.113,57.113,0,0,0,20.058-3.6,37.233,37.233,0,0,0,36.228,2.52c5.5,9.456,12.415,14.811,20.625,15.945a31.483,31.483,0,0,0,4.287.3c9.839,0,17.869-4.687,23.3-9.167,5.9,4.5,14.914,9.169,25,9.169a31.952,31.952,0,0,0,4.366-.3c10.613-1.466,17.672-9.819,21.535-16.039a39.732,39.732,0,0,0,19.31,3.53,38.317,38.317,0,0,0,17.851-6.017A57.048,57.048,0,0,0,362.392,396h.239c13.16,0,24.7-4.626,31.652-12.741a33.7,33.7,0,0,0,5.468-35.036c15.685-9.119,23.306-22.775,19.609-36.243a35.537,35.537,0,0,0-11.2-16.98H425v30.36c0,3.313,2.806,5.64,6.12,5.64h27.586a24.528,24.528,0,0,0,6.241,11.164,23.964,23.964,0,1,0,16.984-40.835,23.7,23.7,0,0,0-16.984,6.861A23.427,23.427,0,0,0,458.706,319H437V288.653A5.611,5.611,0,0,0,431.12,283h-26.5a42.624,42.624,0,0,0,1.01-21h57.123A23.84,23.84,0,0,0,469,272.984Zm8.486-25.483a12.018,12.018,0,1,1-3.521,8.5A11.941,11.941,0,0,1,477.482,247.5Zm-4.05-69.36a12.02,12.02,0,1,1,0,17A11.943,11.943,0,0,1,473.432,178.141Zm-434.864,17a12.019,12.019,0,1,1,0-17A11.944,11.944,0,0,1,38.568,195.139Zm-4.05,69.36a12.018,12.018,0,1,1,3.521-8.5A11.941,11.941,0,0,1,34.518,264.5Zm4.05,69.36a12.02,12.02,0,1,1,0-17A11.943,11.943,0,0,1,38.568,333.859Zm434.864-17a12.019,12.019,0,1,1,0,17A11.944,11.944,0,0,1,473.432,316.861ZM228.16,398.976c-5.389-.744-10.188-5.7-14.265-14.735a6,6,0,0,0-8.705-2.585c-5.6,3.59-11.352,5.183-17.081,4.735a25.4,25.4,0,0,1-6.011-1.215,35.367,35.367,0,0,0,11.3-18.63,6,6,0,1,0-11.657-2.848,23.437,23.437,0,0,1-7.95,12.934c-11.826,9.663-36.724,10.881-46.964-1.067a22.237,22.237,0,0,1-1.449-26.669,6,6,0,0,0-2.55-8.7c-16.726-7.662-20.584-18.049-18.617-25.215,2.661-9.691,14.638-16.981,16.707-17.908a6,6,0,0,0,2.486-9.108,28.825,28.825,0,0,1-5.273-23.606c2.061-9.969,8.879-18.946,18.707-24.626,19.4-11.212,46.363-6.215,58.891,10.908a6,6,0,0,0,9.685-7.086c-7.854-10.735-20.036-18.111-34.3-20.767a60.331,60.331,0,0,0-28.184,1.371,20.376,20.376,0,0,1,2.967-12.625c5.375-8.237,16.383-10.3,16.468-10.317a6,6,0,0,0,3.694-9.64,27.088,27.088,0,0,1-4.786-8.954c-2.959-9.776-.413-23.318,10.177-30.286a34.44,34.44,0,0,1,18.085-5.756c.05,0,.1.009.149.009.117,0,.231-.009.346-.015,10.14-.14,20.549,4.158,29.293,12.633a6,6,0,1,0,8.352-8.616c-9.187-8.905-20.155-14.164-31.249-15.567,2.387-10.807,11.126-19.334,22.822-21.579A33.648,33.648,0,0,1,248,121.44V288.854a42.915,42.915,0,0,0-8.468-4.49,6,6,0,0,0-4.287,11.208c.427.163,9.506,3.71,12.755,10.48v85.367C243.732,395.329,236.594,400.137,228.16,398.976ZM389.171,340.2a6,6,0,0,0-2.55,8.7,22.236,22.236,0,0,1-1.449,26.668c-10.24,11.947-35.138,10.726-46.964,1.063a23.452,23.452,0,0,1-7.95-12.942,5.995,5.995,0,0,0-11.657,2.805,35.555,35.555,0,0,0,11.178,18.578,26.64,26.64,0,0,1-6.387,1.325c-8.2.641-15.026-3.1-17.582-4.735a6,6,0,0,0-8.7,2.585c-.622,1.379-6.335,13.5-15.265,14.735-8.363,1.152-17-3.48-21.84-7.621V309.881a5.967,5.967,0,0,0,.54-4.167c-.153-.653-.339-1.284-.54-1.9V267.064a5.979,5.979,0,0,0,1.286-4.414,10.617,10.617,0,0,1,.2-3.586c1.8-7.7,12.335-12.08,14.427-12.88a6,6,0,1,0-4.287-11.208A46.6,46.6,0,0,0,260,241.434V121.619a37.825,37.825,0,0,1,30.754-8.069c12.152,2.333,21.861,11.126,24.669,21.494-11.042,1.433-21.951,6.686-31.1,15.55a6,6,0,1,0,8.352,8.616c8.227-7.973,17.928-12.249,27.493-12.611a5.651,5.651,0,0,0,2.071.4h.075a5.512,5.512,0,0,0,1.864-.329,34.522,34.522,0,0,1,16.37,5.668c10.59,6.968,13.136,20.51,10.177,30.286a27.088,27.088,0,0,1-4.786,8.954,6.013,6.013,0,0,0,3.668,9.636c.111.019,11.119,2.084,16.494,10.321a20.385,20.385,0,0,1,2.967,12.628,60.331,60.331,0,0,0-28.184-1.372c-14.267,2.656-26.449,10.031-34.3,20.766a6,6,0,0,0,9.685,7.085c12.528-17.123,39.5-22.121,58.891-10.908,9.828,5.681,16.646,14.657,18.707,24.626a28.824,28.824,0,0,1-5.273,23.606,5.983,5.983,0,0,0,2.462,9.1c2.093.938,14.07,8.228,16.731,17.919C409.755,322.149,405.9,332.535,389.171,340.2Z"/></svg>
