<svg id="Layer_1" enable-background="new 0 0 512 512" height="512" viewBox="0 0 512 512" width="512" xmlns="http://www.w3.org/2000/svg"><path d="m105 241h91v30h-91z" fill="#697c86"/><path d="m60 135h30v91h-30z" fill="#697c86"/><g fill="#465a61"><path d="m316 241h91v30h-91z"/><path d="m422 286h30v91h-30z"/><path d="m286 60h91v30h-91z"/></g><path d="m241 316h30v91h-30z" fill="#697c86"/><path d="m241 105h30v91h-30z" fill="#697c86"/><path d="m256 105h15v91h-15z" fill="#465a61"/><path d="m256 316h15v91h-15z" fill="#465a61"/><path d="m135 422h91v30h-91z" fill="#697c86"/><path d="m0 0v150h150v-150z" fill="#76e2f8"/><path d="m75 0h75v150h-75z" fill="#4bb9ec"/><path d="m60 60h30v30h-30z" fill="#697c86"/><path d="m75 60h15v30h-15z" fill="#32393f"/><path d="m0 362v150h150v-150z" fill="#76e2f8"/><path d="m75 362h75v150h-75z" fill="#4bb9ec"/><path d="m60 422h30v30h-30z" fill="#697c86"/><path d="m75 422h15v30h-15z" fill="#32393f"/><path d="m181 181v150h150v-150z" fill="#76e2f8"/><path d="m256 181h75v150h-75z" fill="#4bb9ec"/><path d="m241 241h30v30h-30z" fill="#697c86"/><path d="m256 241h15v30h-15z" fill="#32393f"/><path d="m362 362v150h150v-150z" fill="#76e2f8"/><path d="m437 362h75v150h-75z" fill="#4bb9ec"/><path d="m422 422h30v30h-30z" fill="#697c86"/><path d="m437 422h15v30h-15z" fill="#465a61"/><path d="m362 0v150h150v-150z" fill="#76e2f8"/><path d="m437 0h75v150h-75z" fill="#4bb9ec"/><path d="m422 60h30v30h-30z" fill="#697c86"/><path d="m437 60h15v30h-15z" fill="#465a61"/><path d="m256 392c-24.901 0-45 20.099-45 45s20.099 45 45 45 45-20.099 45-45-20.099-45-45-45z" fill="#ffda2d"/><path d="m301 437c0 24.901-20.099 45-45 45v-90c24.901 0 45 20.099 45 45z" fill="#fdbf00"/><path d="m256 30c-24.901 0-45 20.099-45 45s20.099 45 45 45 45-20.099 45-45-20.099-45-45-45z" fill="#ffda2d"/><path d="m301 75c0 24.901-20.099 45-45 45v-90c24.901 0 45 20.099 45 45z" fill="#fdbf00"/><path d="m437 211c-24.901 0-45 20.099-45 45s20.099 45 45 45 45-20.099 45-45-20.099-45-45-45z" fill="#ffda2d"/><path d="m482 256c0 24.901-20.099 45-45 45v-90c24.901 0 45 20.099 45 45z" fill="#fdbf00"/><path d="m75 211c-24.901 0-45 20.099-45 45s20.099 45 45 45 45-20.099 45-45-20.099-45-45-45z" fill="#ffda2d"/><path d="m120 256c0 24.901-20.099 45-45 45v-90c24.901 0 45 20.099 45 45z" fill="#fdbf00"/></svg>